<?xml version="1.0" encoding="utf-8"?>
<!-- Generator: Adobe Illustrator 28.0.0, SVG Export Plug-In . SVG Version: 6.00 Build 0)  -->
<svg version="1.1" id="Layer_1" xmlns="http://www.w3.org/2000/svg" xmlns:xlink="http://www.w3.org/1999/xlink" x="0px" y="0px"
	 viewBox="0 0 727.2 405.6" style="enable-background:new 0 0 727.2 405.6;" xml:space="preserve">
<style type="text/css">
	.st0{enable-background:new    ;}
	.st1{fill:#2A8C7B;}
	.st2{fill:#F2703D;}
</style>
<g>
	<g class="st0">
		<path class="st1" d="M146,194.8l-20.3-0.2l0.6-75.2l-82.7-0.6l-0.6,75.2l-20.3-0.2l1.3-161.3l20.3,0.2l-0.5,68.2l82.7,0.6
			l0.5-68.2l20.3,0.2L146,194.8z"/>
		<path class="st1" d="M291.2,195.9l-19-50.1l-63.9-0.5l-19.6,49.8l-20.6-0.2l64.3-161.5l18.3,0.1l61.5,162.5L291.2,195.9z
			 M248.5,78.8c-0.4-1.2-1.2-3.4-2.2-6.6c-1-3.2-2-6.5-3-9.9c-1-3.4-1.7-6-2.3-7.8c-0.8,3-1.6,6.1-2.4,9.1c-0.9,3.1-1.7,5.9-2.6,8.5
			c-0.8,2.6-1.6,4.7-2.2,6.5l-18.7,48.7l51.1,0.4L248.5,78.8z"/>
		<path class="st1" d="M426.2,153.8c-0.1,9.6-2.5,17.8-7.2,24.5c-4.7,6.7-11.4,11.8-20.1,15.3c-8.7,3.5-18.9,5.3-30.7,5.2
			c-6,0-11.8-0.4-17.3-1c-5.5-0.6-10.5-1.6-15-2.7c-4.5-1.2-8.5-2.6-11.9-4.3l0.2-19.4c5.4,2.5,12.1,4.7,20.2,6.7
			c8,2,16.4,3.1,24.9,3.1c8,0.1,14.7-0.9,20.1-3c5.4-2.1,9.5-5,12.3-8.9c2.7-3.9,4.1-8.5,4.2-13.7c0-5.3-1.1-9.7-3.3-13.4
			c-2.2-3.6-6.1-7-11.6-10.1c-5.5-3.1-13.1-6.5-22.9-10c-6.9-2.6-12.9-5.4-18.1-8.4c-5.2-3-9.5-6.4-12.9-10.2
			c-3.4-3.8-6-8.1-7.7-12.9c-1.7-4.8-2.5-10.4-2.5-16.7c0.1-8.6,2.3-15.9,6.7-22c4.4-6.1,10.5-10.7,18.3-14
			c7.8-3.2,16.7-4.8,26.8-4.8c8.9,0.1,17,1,24.4,2.7c7.4,1.7,14,4,20.1,6.7l-6.5,17.3c-5.6-2.5-11.6-4.5-18.1-6.2
			c-6.5-1.7-13.3-2.6-20.4-2.6c-6.8-0.1-12.4,0.9-17,2.8c-4.5,1.9-7.9,4.6-10.2,8.2c-2.3,3.5-3.4,7.6-3.5,12.3
			c0,5.4,1.1,9.9,3.3,13.6c2.2,3.6,5.9,6.9,11,9.8c5.1,2.9,12,6,20.7,9.4c9.5,3.5,17.5,7.3,24,11.4c6.5,4,11.5,8.9,14.8,14.5
			C424.6,138.4,426.3,145.4,426.2,153.8z"/>
		<path class="st1" d="M509.5,197.6l-20.3-0.2L490.2,54l-50.4-0.4l0.1-17.8l120.9,0.9l-0.1,17.8l-50.2-0.4L509.5,197.6z"/>
		<path class="st1" d="M626.7,116.5l42.6-79l21.9,0.2L636.7,136l-0.5,62.6l-20.3-0.2l0.5-61.7l-53-100.1l22.1,0.2L626.7,116.5z"/>
	</g>
</g>
<path class="st1" d="M168.6,244.2c21.5,0.2,37.8,3.3,48.7,9.4c10.9,6.1,16.4,16.8,16.2,32c-0.1,6-1.1,11.5-3.1,16.5s-4.9,9-8.6,12.1
	s-8.2,5.1-13.5,6v1.1c5.4,1.1,10.3,3,14.6,5.8c4.4,2.7,7.8,6.7,10.3,11.8c2.5,5.1,3.8,11.9,3.7,20.4c-0.1,9.8-2.5,18.2-7.3,25.1
	c-4.8,7-11.7,12.3-20.6,15.9c-8.9,3.6-19.5,5.4-31.7,5.3l-60.3-0.5l1.3-161.3L168.6,244.2L168.6,244.2z M151.8,335.1l-0.3,42
	l22.4,0.2c10.2,0.1,17.4-1.9,21.5-5.8c4.1-4,6.2-9.2,6.2-15.9c0-4.1-0.8-7.6-2.5-10.6c-1.7-3-4.7-5.4-8.9-7.1s-9.9-2.6-17.1-2.6
	L151.8,335.1L151.8,335.1z M171.9,308.2c9.9,0.1,16.8-1.5,20.7-4.6c3.9-3.1,5.8-7.7,5.9-13.7c0.1-6.2-2.2-10.6-6.7-13.4
	c-4.5-2.8-11.6-4.2-21.4-4.2l-18.1-0.1L152,308L171.9,308.2L171.9,308.2z"/>
<path class="st1" d="M321.5,403.9l-70.2-0.5l0.1-18.6l18.9-8.5l0.8-99.8l-18.7-8.8l0.1-18.6l70.2,0.6l-0.1,18.6l-18.9,8.5l-0.8,99.8
	l18.7,8.8L321.5,403.9z"/>
<path class="st1" d="M413,400.3l-31.8-0.2l1-124l-40.9-0.3l0.2-26.6l113.6,0.9l-0.2,26.6l-40.9-0.3L413,400.3L413,400.3z"/>
<path class="st1" d="M708,359.1c-0.1,8.5-2.2,15.9-6.5,22.2c-4.2,6.3-10.3,11.1-18.2,14.5s-17.5,5-28.9,4.9c-5,0-9.9-0.4-14.7-1.1
	c-4.8-0.7-9.4-1.7-13.7-3c-4.4-1.3-8.5-2.9-12.4-4.9l0.2-28.5c6.9,3,14,5.8,21.3,8.4c7.3,2.6,14.6,3.9,21.9,3.9c5,0,9-0.6,12-1.9
	c3-1.3,5.3-3.1,6.7-5.4s2.2-4.9,2.2-7.9c0-3.6-1.2-6.8-3.7-9.3c-2.5-2.6-5.8-5-10-7.3c-4.2-2.3-8.9-4.7-14.3-7.3
	c-3.4-1.6-7-3.6-10.9-5.9c-3.9-2.3-7.6-5-11.2-8.4c-3.5-3.3-6.5-7.4-8.7-12.1s-3.4-10.4-3.3-17c0.1-8.6,2.1-16,6.1-22.1
	s9.7-10.8,17.1-13.9s16-4.7,26-4.6c7.5,0.1,14.7,1,21.5,2.8c6.8,1.8,13.9,4.4,21.3,7.7L698,286.6c-6.6-2.8-12.5-4.9-17.8-6.4
	c-5.2-1.5-10.6-2.3-16.2-2.4c-3.8,0-7,0.5-9.7,1.8c-2.7,1.2-4.8,2.9-6.2,5c-1.4,2.1-2.2,4.7-2.2,7.7c0,3.4,1,6.2,3,8.6
	c2,2.4,5,4.7,9,6.9c4,2.2,9.1,4.8,15.1,7.8c7.4,3.6,13.7,7.3,18.8,11.1c5.2,3.8,9.1,8.3,11.9,13.5C706.6,345.2,708,351.5,708,359.1
	L708,359.1z"/>
<path class="st2" d="M444.9,315.7l0.3-5.7c-0.1-21.1,17.1-38.3,38.3-38.3l118.7-0.3l0.1,25.2l-88.6,0.2l0.2,25.9l88.5-0.1l0,25.1
	l-88.5-0.2l-0.3,25.9l88.7,0.2l-0.3,25.4l-118.7-0.5c-21.3,0-38.4-17.2-38.3-38.3l-0.3-5.7"/>
<rect x="269.9" y="317.8" class="st2" width="174.9" height="34.8"/>
</svg>
